<svg width="33" height="33" viewBox="0 0 33 33" fill="none" xmlns="http://www.w3.org/2000/svg">
<path fill-rule="evenodd" clip-rule="evenodd" d="M4.4591 3.60092C5.03712 3.37745 5.69305 3.53244 6.10991 3.99099L16.1099 14.991C16.63 15.5631 16.63 16.4369 16.1099 17.009L6.10991 28.009C5.69305 28.4676 5.03712 28.6225 4.45911 28.3991C3.88109 28.1756 3.5 27.6197 3.5 27V5C3.5 4.38029 3.88109 3.82438 4.4591 3.60092ZM18.4591 3.60092C19.0371 3.37745 19.693 3.53244 20.1099 3.99099L30.1099 14.991C30.63 15.5631 30.63 16.4369 30.1099 17.009L20.1099 28.009C19.693 28.4676 19.0371 28.6225 18.4591 28.3991C17.8811 28.1756 17.5 27.6197 17.5 27V5C17.5 4.38029 17.8811 3.82438 18.4591 3.60092ZM6.5 8.87991V23.1201L12.9728 16L6.5 8.87991ZM20.5 8.87991V23.1201L26.9728 16L20.5 8.87991Z" fill="white"/>
</svg>
